<!DOCTYPE svg PUBLIC "-//W3C//DTD SVG 20010904//EN" "http://www.w3.org/TR/2001/REC-SVG-20010904/DTD/svg10.dtd">
<svg version="1.0" xmlns="http://www.w3.org/2000/svg" width="88px" height="49px" viewBox="0 0 880 490" preserveAspectRatio="xMidYMid meet">
<g id="layer101" fill="#454545" stroke="none">
 <path d="M80 468 c-19 -13 -45 -39 -58 -58 -33 -48 -29 -149 8 -198 43 -58 131 -86 195 -62 23 9 30 7 45 -12 l18 -23 -40 -5 c-48 -6 -69 -30 -49 -54 10 -12 33 -16 98 -16 l85 0 -4 25 c-5 25 -5 25 70 25 65 0 73 -2 62 -15 -8 -9 -30 -15 -60 -15 -51 0 -75 -16 -64 -44 5 -13 21 -16 78 -16 l71 0 47 73 48 72 68 0 c55 0 75 4 103 24 57 39 73 69 77 141 3 55 0 70 -20 100 -38 55 -82 80 -145 80 -73 0 -119 -23 -155 -79 -25 -40 -29 -54 -26 -102 3 -37 12 -66 27 -87 12 -18 19 -36 16 -42 -4 -6 -37 29 -73 77 -64 84 -69 88 -109 91 -38 3 -44 7 -62 46 -31 64 -73 90 -151 94 -55 3 -70 0 -100 -20z m143 -49 c23 -12 56 -48 57 -61 0 -5 -24 -8 -54 -8 -98 0 -106 -15 -51 -90 28 -39 32 -49 20 -54 -43 -16 -119 30 -131 81 -24 94 74 175 159 132z m556 -15 c32 -27 48 -76 37 -117 -8 -34 -51 -74 -88 -81 -49 -10 -54 7 -19 57 36 53 39 73 11 82 -26 8 -33 3 -67 -50 -15 -25 -31 -45 -35 -45 -4 0 -12 17 -19 39 -31 103 97 185 180 115z m-499 -118 c0 -2 -3 -12 -6 -20 -5 -13 -9 -14 -20 -5 -20 16 -17 29 6 29 11 0 20 -2 20 -4z m165 -58 l46 -63 -77 -3 c-60 -2 -80 1 -95 14 -18 16 -18 17 0 43 10 14 22 36 25 49 14 42 50 28 101 -40z"/>
 </g>

</svg>